<svg width="22" height="21" viewBox="0 0 22 21" fill="none" xmlns="http://www.w3.org/2000/svg">
<path d="M21.7077 13.7925C21.5202 13.605 21.2659 13.4997 21.0007 13.4997C20.7356 13.4997 20.4813 13.605 20.2938 13.7925L17.0009 17.0853V1.49996C17.0009 1.23475 16.8955 0.980411 16.708 0.792882C16.5205 0.605353 16.2661 0.5 16.0009 0.5C15.7357 0.5 15.4814 0.605353 15.2939 0.792882C15.1063 0.980411 15.001 1.23475 15.001 1.49996V17.0853L11.7081 13.7925C11.5195 13.6103 11.2669 13.5095 11.0047 13.5118C10.7425 13.5141 10.4917 13.6193 10.3063 13.8047C10.1209 13.9901 10.0158 14.2409 10.0135 14.503C10.0112 14.7652 10.112 15.0178 10.2942 15.2064L15.294 20.2062C15.3868 20.2993 15.4972 20.3732 15.6187 20.4236C15.7402 20.4741 15.8704 20.5 16.0019 20.5C16.1335 20.5 16.2637 20.4741 16.3852 20.4236C16.5067 20.3732 16.617 20.2993 16.7099 20.2062L21.7097 15.2064C21.8969 15.0186 22.0019 14.7642 22.0015 14.499C22.0011 14.2339 21.8954 13.9797 21.7077 13.7925Z" fill="white"/>
<path d="M11.7081 5.79281L6.70829 0.793009C6.61516 0.699694 6.50433 0.62592 6.38231 0.576018C6.13769 0.474905 5.86296 0.474905 5.61834 0.576018C5.49631 0.62592 5.38548 0.699694 5.29235 0.793009L0.292545 5.79281C0.105044 5.98058 -0.000187279 6.23514 2.50212e-07 6.50049C0.000187779 6.76584 0.105779 7.02026 0.293545 7.20776C0.481311 7.39526 0.735871 7.50049 1.00122 7.5003C1.26658 7.50011 1.52099 7.39452 1.70849 7.20676L5.00136 3.91389V19.4993C5.00136 19.7645 5.10671 20.0188 5.29424 20.2064C5.48177 20.3939 5.73611 20.4992 6.00132 20.4992C6.26653 20.4992 6.52087 20.3939 6.7084 20.2064C6.89593 20.0188 7.00128 19.7645 7.00128 19.4993V3.91389L10.2942 7.20676C10.4827 7.38891 10.7353 7.4897 10.9975 7.48742C11.2597 7.48514 11.5105 7.37998 11.6959 7.19458C11.8813 7.00917 11.9865 6.75837 11.9888 6.49619C11.991 6.234 11.8902 5.98141 11.7081 5.79281Z" fill="white"/>
</svg>
